<svg xmlns="http://www.w3.org/2000/svg" xmlns:svg="http://www.w3.org/2000/svg" id="svg8" width="1920mm" height="1920mm" version="1.1" viewBox="0 0 1920 1920"><defs id="defs2"><marker id="marker17707" orient="auto" overflow="visible" refX="0" refY="0"><path id="path17705" fill="#fff" fill-opacity="1" fill-rule="evenodd" stroke="#fb0000" stroke-opacity="1" stroke-width="1pt" d="M -2.5,-1.0 C -2.5,1.7600000 -4.7400000,4.0 -7.5,4.0 C -10.260000,4.0 -12.5,1.7600000 -12.5,-1.0 C -12.5,-3.7600000 -10.260000,-6.0 -7.5,-6.0 C -4.7400000,-6.0 -2.5,-3.7600000 -2.5,-1.0 z" transform="scale(0.4) translate(7.4, 1)"/></marker><marker id="marker17253" orient="auto" overflow="visible" refX="0" refY="0"><path id="path17251" fill="#fff" fill-opacity="1" fill-rule="evenodd" stroke="#06fb00" stroke-opacity="1" stroke-width="1pt" d="M -2.5,-1.0 C -2.5,1.7600000 -4.7400000,4.0 -7.5,4.0 C -10.260000,4.0 -12.5,1.7600000 -12.5,-1.0 C -12.5,-3.7600000 -10.260000,-6.0 -7.5,-6.0 C -4.7400000,-6.0 -2.5,-3.7600000 -2.5,-1.0 z" transform="scale(0.4) translate(7.4, 1)"/></marker><marker id="marker15833" orient="auto" overflow="visible" refX="0" refY="0"><path id="path15831" fill="#fff" fill-opacity="1" fill-rule="evenodd" stroke="#fff" stroke-opacity="1" stroke-width="1pt" d="M -2.5,-1.0 C -2.5,1.7600000 -4.7400000,4.0 -7.5,4.0 C -10.260000,4.0 -12.5,1.7600000 -12.5,-1.0 C -12.5,-3.7600000 -10.260000,-6.0 -7.5,-6.0 C -4.7400000,-6.0 -2.5,-3.7600000 -2.5,-1.0 z" transform="scale(0.4) translate(7.4, 1)"/></marker><marker id="marker13025" orient="auto" overflow="visible" refX="0" refY="0"><path id="path13023" fill="#fff" fill-opacity="1" fill-rule="evenodd" stroke="#16f800" stroke-opacity="1" stroke-width="1pt" d="M -2.5,-1.0 C -2.5,1.7600000 -4.7400000,4.0 -7.5,4.0 C -10.260000,4.0 -12.5,1.7600000 -12.5,-1.0 C -12.5,-3.7600000 -10.260000,-6.0 -7.5,-6.0 C -4.7400000,-6.0 -2.5,-3.7600000 -2.5,-1.0 z" transform="scale(0.4) translate(7.4, 1)"/></marker><marker id="marker7691" orient="auto" overflow="visible" refX="0" refY="0"><path id="path7689" fill="#fff" fill-opacity="1" fill-rule="evenodd" stroke="#16f800" stroke-opacity="1" stroke-width="1pt" d="M -2.5,-1.0 C -2.5,1.7600000 -4.7400000,4.0 -7.5,4.0 C -10.260000,4.0 -12.5,1.7600000 -12.5,-1.0 C -12.5,-3.7600000 -10.260000,-6.0 -7.5,-6.0 C -4.7400000,-6.0 -2.5,-3.7600000 -2.5,-1.0 z" transform="scale(0.4) translate(7.4, 1)"/></marker><marker id="marker6235" orient="auto" overflow="visible" refX="0" refY="0"><path id="path6233" fill="#fff" fill-opacity="1" fill-rule="evenodd" stroke="#16f800" stroke-opacity="1" stroke-width="1pt" d="M -2.5,-1.0 C -2.5,1.7600000 -4.7400000,4.0 -7.5,4.0 C -10.260000,4.0 -12.5,1.7600000 -12.5,-1.0 C -12.5,-3.7600000 -10.260000,-6.0 -7.5,-6.0 C -4.7400000,-6.0 -2.5,-3.7600000 -2.5,-1.0 z" transform="scale(0.4) translate(7.4, 1)"/></marker><marker id="marker5035" orient="auto" overflow="visible" refX="0" refY="0"><path id="path5033" fill="#f9f9f9" fill-opacity="1" fill-rule="evenodd" stroke="#1bfffb" stroke-opacity="1" stroke-width="1pt" d="M -2.5,-1.0 C -2.5,1.7600000 -4.7400000,4.0 -7.5,4.0 C -10.260000,4.0 -12.5,1.7600000 -12.5,-1.0 C -12.5,-3.7600000 -10.260000,-6.0 -7.5,-6.0 C -4.7400000,-6.0 -2.5,-3.7600000 -2.5,-1.0 z" transform="scale(0.4) translate(7.4, 1)"/></marker><marker id="marker4297" orient="auto" overflow="visible" refX="0" refY="0"><path id="path4295" fill="#fff" fill-opacity="1" fill-rule="evenodd" stroke="#fff" stroke-opacity="1" stroke-width="1pt" d="M -2.5,-1.0 C -2.5,1.7600000 -4.7400000,4.0 -7.5,4.0 C -10.260000,4.0 -12.5,1.7600000 -12.5,-1.0 C -12.5,-3.7600000 -10.260000,-6.0 -7.5,-6.0 C -4.7400000,-6.0 -2.5,-3.7600000 -2.5,-1.0 z" transform="scale(0.4) translate(7.4, 1)"/></marker><marker id="marker2947" orient="auto" overflow="visible" refX="0" refY="0"><path id="path2945" fill="#fff" fill-opacity="1" fill-rule="evenodd" stroke="#fff" stroke-opacity="1" stroke-width="1pt" d="M -2.5,-1.0 C -2.5,1.7600000 -4.7400000,4.0 -7.5,4.0 C -10.260000,4.0 -12.5,1.7600000 -12.5,-1.0 C -12.5,-3.7600000 -10.260000,-6.0 -7.5,-6.0 C -4.7400000,-6.0 -2.5,-3.7600000 -2.5,-1.0 z" transform="scale(0.4) translate(7.4, 1)"/></marker><marker id="marker2869" orient="auto" overflow="visible" refX="0" refY="0"><path id="path2867" fill="#fff" fill-opacity="1" fill-rule="evenodd" stroke="#fff" stroke-opacity="1" stroke-width="1pt" d="M -2.5,-1.0 C -2.5,1.7600000 -4.7400000,4.0 -7.5,4.0 C -10.260000,4.0 -12.5,1.7600000 -12.5,-1.0 C -12.5,-3.7600000 -10.260000,-6.0 -7.5,-6.0 C -4.7400000,-6.0 -2.5,-3.7600000 -2.5,-1.0 z" transform="scale(0.4) translate(7.4, 1)"/></marker><marker id="DotS" orient="auto" overflow="visible" refX="0" refY="0"><path id="path954" fill="#fff" fill-opacity="1" fill-rule="evenodd" stroke="#fff" stroke-opacity="1" stroke-width="1pt" d="M -2.5,-1.0 C -2.5,1.7600000 -4.7400000,4.0 -7.5,4.0 C -10.260000,4.0 -12.5,1.7600000 -12.5,-1.0 C -12.5,-3.7600000 -10.260000,-6.0 -7.5,-6.0 C -4.7400000,-6.0 -2.5,-3.7600000 -2.5,-1.0 z" transform="scale(0.2) translate(7.4, 1)"/></marker><marker id="DotM" orient="auto" overflow="visible" refX="0" refY="0"><path id="path951" fill="#fff" fill-opacity="1" fill-rule="evenodd" stroke="#fff" stroke-opacity="1" stroke-width="1pt" d="M -2.5,-1.0 C -2.5,1.7600000 -4.7400000,4.0 -7.5,4.0 C -10.260000,4.0 -12.5,1.7600000 -12.5,-1.0 C -12.5,-3.7600000 -10.260000,-6.0 -7.5,-6.0 C -4.7400000,-6.0 -2.5,-3.7600000 -2.5,-1.0 z" transform="scale(0.4) translate(7.4, 1)"/></marker><marker id="DotL" orient="auto" overflow="visible" refX="0" refY="0"><path id="path948" fill="#fff" fill-opacity="1" fill-rule="evenodd" stroke="#fff" stroke-opacity="1" stroke-width="1pt" d="M -2.5,-1.0 C -2.5,1.7600000 -4.7400000,4.0 -7.5,4.0 C -10.260000,4.0 -12.5,1.7600000 -12.5,-1.0 C -12.5,-3.7600000 -10.260000,-6.0 -7.5,-6.0 C -4.7400000,-6.0 -2.5,-3.7600000 -2.5,-1.0 z" transform="scale(0.8) translate(7.4, 1)"/></marker><marker id="Arrow2Mend" orient="auto" overflow="visible" refX="0" refY="0"><path id="path914" fill="#fff" fill-opacity="1" fill-rule="evenodd" stroke="#fff" stroke-linejoin="round" stroke-opacity="1" stroke-width=".625" d="M 8.7185878,4.0337352 L -2.2072895,0.016013256 L 8.7185884,-4.0017078 C 6.9730900,-1.6296469 6.9831476,1.6157441 8.7185878,4.0337352 z" transform="scale(0.6) rotate(180) translate(0,0)"/></marker><marker id="Arrow1Lend" orient="auto" overflow="visible" refX="0" refY="0"><path id="path890" fill="#fff" fill-opacity="1" fill-rule="evenodd" stroke="#fff" stroke-opacity="1" stroke-width="1pt" d="M 0.0,0.0 L 5.0,-5.0 L -12.5,0.0 L 5.0,5.0 L 0.0,0.0 z" transform="scale(0.8) rotate(180) translate(12.5,0)"/></marker><marker id="marker1199" orient="auto" overflow="visible" refX="0" refY="0"><path id="path1197" fill="#fff" fill-opacity="1" fill-rule="evenodd" stroke="#fff" stroke-opacity="1" stroke-width="1pt" d="M 0.0,0.0 L 5.0,-5.0 L -12.5,0.0 L 5.0,5.0 L 0.0,0.0 z" transform="scale(0.8) translate(12.5,0)"/></marker><marker id="marker1171" orient="auto" overflow="visible" refX="0" refY="0"><path id="path1169" fill="#fff" fill-opacity="1" fill-rule="evenodd" stroke="#fff" stroke-opacity="1" stroke-width="1pt" d="M 0.0,0.0 L 5.0,-5.0 L -12.5,0.0 L 5.0,5.0 L 0.0,0.0 z" transform="scale(0.8) translate(12.5,0)"/></marker><marker id="Arrow1Lstart" orient="auto" overflow="visible" refX="0" refY="0"><path id="path887" fill="#fff" fill-opacity="1" fill-rule="evenodd" stroke="#fff" stroke-opacity="1" stroke-width="1pt" d="M 0.0,0.0 L 5.0,-5.0 L -12.5,0.0 L 5.0,5.0 L 0.0,0.0 z" transform="scale(0.8) translate(12.5,0)"/></marker></defs><metadata id="metadata5"/><g id="layer1" transform="translate(0,1623)"><flowRoot id="flowRoot10" fill="#000" fill-opacity="1" stroke="none" font-family="Roboto" font-size="160" font-stretch="normal" font-style="normal" font-variant="normal" font-weight="normal" letter-spacing="0" transform="matrix(0.26458333,0,0,0.26458333,183.4753,-1623)" word-spacing="0" xml:space="preserve" style="line-height:1.25;-inkscape-font-specification:Roboto"><flowRegion style="-inkscape-font-specification:Roboto" id="flowRegion12" font-family="Roboto" font-size="160" font-stretch="normal" font-style="normal" font-variant="normal" font-weight="normal"><rect id="rect14" width="2804.62" height="770.5" x="2157.4" y="430.063" font-family="Roboto" font-size="160" font-stretch="normal" font-style="normal" font-variant="normal" font-weight="normal" style="-inkscape-font-specification:Roboto"/></flowRegion><flowPara id="flowPara16"/></flowRoot><flowRoot id="flowRoot18" fill="#000" fill-opacity="1" stroke="none" font-family="Roboto" font-size="40" font-stretch="normal" font-style="normal" font-variant="normal" font-weight="normal" letter-spacing="0" transform="matrix(0.26441851,0,0,0.26458333,203.96499,-1661.3104)" word-spacing="0" xml:space="preserve" style="line-height:1.25;-inkscape-font-specification:Roboto"><flowRegion style="-inkscape-font-specification:Roboto" id="flowRegion20" font-family="Roboto" font-stretch="normal" font-style="normal" font-variant="normal" font-weight="normal"><rect font-family="Roboto" style="-inkscape-font-specification:Roboto" id="rect22" width="2280.68" height="785.91" x="2157.4" y="445.473" font-stretch="normal" font-style="normal" font-variant="normal" font-weight="normal"/></flowRegion><flowPara style="-inkscape-font-specification:Roboto" id="flowPara24" fill="#fff" fill-opacity="1" font-family="Roboto" font-size="160" font-stretch="normal" font-style="normal" font-variant="normal" font-weight="normal">Application Pipeline</flowPara></flowRoot><g id="g4572" transform="translate(10.583252,-10.583293)"><rect id="rect4563" width="300" height="95.25" x="800.667" y="-1396.333" fill="#c2c2c2" fill-opacity=".984" stroke="none" stroke-dasharray="none" stroke-miterlimit="4" stroke-opacity="1" stroke-width=".126" opacity="1" ry="13.607"/><text font-size="10.583" style="line-height:1.25;-inkscape-font-specification:Roboto" id="text4567" x="904.542" y="-1338.368" fill="#000" fill-opacity="1" stroke="none" stroke-width=".265" font-family="Roboto" font-stretch="normal" font-style="normal" font-variant="normal" font-weight="normal" letter-spacing="0" word-spacing="0" xml:space="preserve"><tspan id="tspan4565" x="904.542" y="-1338.368" stroke-width=".265" font-family="Roboto" font-size="35.278" font-stretch="normal" font-style="normal" font-variant="normal" font-weight="normal" style="-inkscape-font-specification:Roboto">Awake</tspan></text><rect id="rect4583" width="300" height="95.25" x="800.667" y="-1216.417" fill="#c2c2c2" fill-opacity=".984" stroke="none" stroke-dasharray="none" stroke-miterlimit="4" stroke-opacity="1" stroke-width=".126" opacity="1" ry="13.607"/><text id="text4587" x="851.929" y="-1158.451" fill="#000" fill-opacity="1" stroke="none" stroke-width=".265" font-family="Roboto" font-size="10.583" font-stretch="normal" font-style="normal" font-variant="normal" font-weight="normal" letter-spacing="0" word-spacing="0" xml:space="preserve" style="line-height:1.25;-inkscape-font-specification:Roboto"><tspan id="tspan4585" x="851.929" y="-1158.451" stroke-width=".265" font-family="Roboto" font-size="35.278" font-stretch="normal" font-style="normal" font-variant="normal" font-weight="normal" style="-inkscape-font-specification:Roboto">Boot Screen</tspan></text><rect id="rect31" width="300" height="95.25" x="578.417" y="-1025.917" fill="#c2c2c2" fill-opacity=".984" stroke="none" stroke-dasharray="none" stroke-miterlimit="4" stroke-opacity="1" stroke-width=".126" opacity="1" ry="13.607"/><text font-size="10.583" style="line-height:1.25;-inkscape-font-specification:Roboto" id="text35" x="605.821" y="-964.312" fill="#000" fill-opacity="1" stroke="none" stroke-width=".265" font-family="Roboto" font-stretch="normal" font-style="normal" font-variant="normal" font-weight="normal" letter-spacing="0" word-spacing="0" xml:space="preserve"><tspan id="tspan33" x="605.821" y="-964.312" stroke-width=".265" font-family="Roboto" font-size="35.278" font-stretch="normal" font-style="normal" font-variant="normal" font-weight="normal" style="-inkscape-font-specification:Roboto">Create Window</tspan></text><rect id="rect37" width="300" height="95.25" x="578.417" y="-856.583" fill="#c2c2c2" fill-opacity=".984" stroke="none" stroke-dasharray="none" stroke-miterlimit="4" stroke-opacity="1" stroke-width=".126" opacity="1" ry="13.607"/><rect id="rect43" width="300" height="95.25" x="1022.917" y="-1025.917" fill="#c2c2c2" fill-opacity=".984" stroke="none" stroke-dasharray="none" stroke-miterlimit="4" stroke-opacity="1" stroke-width=".126" opacity="1" ry="13.607"/><text id="text41" x="1047.278" y="-964.716" fill="#000" fill-opacity="1" stroke="none" stroke-width=".265" font-family="Roboto" font-size="10.583" font-stretch="normal" font-style="normal" font-variant="normal" font-weight="normal" letter-spacing="0" word-spacing="0" xml:space="preserve" style="line-height:1.25;-inkscape-font-specification:Roboto"><tspan id="tspan39" x="1047.278" y="-964.716" stroke-width=".265" font-family="Roboto" font-size="35.278" font-stretch="normal" font-style="normal" font-variant="normal" font-weight="normal" style="-inkscape-font-specification:Roboto">Load Resources</tspan></text><text font-size="10.583" style="line-height:1.25;-inkscape-font-specification:Roboto" id="text47" x="584.601" y="-797" fill="#000" fill-opacity="1" stroke="none" stroke-width=".265" font-family="Roboto" font-stretch="normal" font-style="normal" font-variant="normal" font-weight="normal" letter-spacing="0" word-spacing="0" xml:space="preserve"><tspan id="tspan45" x="584.601" y="-797" stroke-width=".265" font-family="Roboto" font-size="35.278" font-stretch="normal" font-style="normal" font-variant="normal" font-weight="normal" style="-inkscape-font-specification:Roboto">Display Animation</tspan></text><rect id="rect49" width="236.5" height="75.089" x="610.167" y="-697.833" fill="#0ff" fill-opacity=".984" stroke="none" stroke-dasharray="none" stroke-miterlimit="4" stroke-opacity="1" stroke-width=".099" opacity="1" ry="10.727"/><text id="text53" x="631.619" y="-650.862" fill="#000" fill-opacity="1" stroke="none" stroke-width=".209" font-family="Roboto" font-size="8.343" font-stretch="normal" font-style="normal" font-variant="normal" font-weight="normal" letter-spacing="0" word-spacing="0" xml:space="preserve" style="line-height:1.25;-inkscape-font-specification:Roboto"><tspan id="tspan51" x="631.619" y="-650.862" stroke-width=".209" font-family="Roboto" font-size="27.811" font-stretch="normal" font-style="normal" font-variant="normal" font-weight="normal" style="-inkscape-font-specification:Roboto">Wait <tspan id="tspan57" stroke-width=".209" font-family="Roboto" font-stretch="normal" font-style="italic" font-variant="normal" font-weight="bold" style="-inkscape-font-specification:'Roboto Bold Italic'">x</tspan> seconds</tspan></text><rect id="rect72" width="300" height="95.25" x="800.667" y="-496.75" fill="#c2c2c2" fill-opacity=".984" stroke="none" stroke-dasharray="none" stroke-miterlimit="4" stroke-opacity="1" stroke-width=".126" opacity="1" ry="13.607"/><text font-size="10.583" style="line-height:1.25;-inkscape-font-specification:Roboto" id="text76" x="851.929" y="-438.785" fill="#000" fill-opacity="1" stroke="none" stroke-width=".265" font-family="Roboto" font-stretch="normal" font-style="normal" font-variant="normal" font-weight="normal" letter-spacing="0" word-spacing="0" xml:space="preserve"><tspan id="tspan74" x="851.929" y="-438.785" stroke-width=".265" font-family="Roboto" font-size="35.278" font-stretch="normal" font-style="normal" font-variant="normal" font-weight="normal" style="-inkscape-font-specification:Roboto">Lock Screen</tspan></text><path id="path78" fill="none" stroke="#fff" stroke-dasharray="none" stroke-linecap="butt" stroke-linejoin="miter" stroke-miterlimit="4" stroke-opacity="1" stroke-width="3" marker-end="url(#marker2869)" d="m 941.91674,-1301.0834 c 0,84.6667 0,84.6667 0,84.6667"/><path id="path885" fill="none" stroke="#fff" stroke-dasharray="none" stroke-linecap="butt" stroke-linejoin="miter" stroke-miterlimit="4" stroke-opacity="1" stroke-width="3" marker-end="url(#DotM)" d="m 920.75008,-1121.1667 c -10.3439,92.3775 -178.04701,-16.1554 -190.50001,95.25"/><path id="path2943" fill="none" stroke="#fff" stroke-dasharray="none" stroke-linecap="butt" stroke-linejoin="miter" stroke-miterlimit="4" stroke-opacity="1" stroke-width="3" marker-end="url(#marker2947)" d="m 973.66675,-1121.1667 c 10.3439,92.3775 178.04695,-16.1554 190.49995,95.25"/><path id="path4293" fill="none" stroke="#fff" stroke-dasharray="none" stroke-linecap="butt" stroke-linejoin="miter" stroke-miterlimit="4" stroke-opacity="1" stroke-width="3" marker-end="url(#marker4297)" d="m 724.95841,-930.66671 v 74.08334"/><path id="path5031" fill="#f9f9f9" stroke="#1bfffb" stroke-dasharray="none" stroke-linecap="butt" stroke-linejoin="miter" stroke-miterlimit="4" stroke-opacity="1" stroke-width="3" marker-end="url(#marker5035)" d="m 724.95841,-761.33337 v 63.5"/><path id="path6231" fill="none" stroke="#16f800" stroke-dasharray="none" stroke-linecap="butt" stroke-linejoin="miter" stroke-miterlimit="4" stroke-opacity="1" stroke-width="3" marker-end="url(#marker6235)" d="m 724.95841,-623.75004 c 10.3439,92.3775 183.33867,15.5946 195.79167,127"/><path id="path7687" fill="none" stroke="#16f800" stroke-dasharray="none" stroke-linecap="butt" stroke-linejoin="miter" stroke-miterlimit="4" stroke-opacity="1" stroke-width="3" marker-end="url(#marker7691)" d="m 1158.8751,-930.66671 c 0,248.70834 -174.18922,212.24941 -174.62502,433.91667"/><path id="path13021" fill="none" stroke="#16f800" stroke-dasharray="none" stroke-linecap="butt" stroke-linejoin="miter" stroke-miterlimit="4" stroke-opacity="1" stroke-width="3" marker-end="url(#marker13025)" d="m 1022.6147,-978.29171 c -115.09379,0 -48.94795,174.625 -144.19795,169.33334"/><rect id="rect15801" width="354.542" height="196.508" x="1513.417" y="-1565.667" fill="#666" fill-opacity=".984" stroke="none" stroke-dasharray="none" stroke-miterlimit="4" stroke-opacity="1" stroke-width=".2" opacity="1" ry="9.481"/><rect id="rect15811" width="130.667" height="31.75" x="1524" y="-1555.083" fill="#c2c2c2" fill-opacity=".984" stroke="none" stroke-dasharray="none" stroke-miterlimit="4" stroke-opacity="1" stroke-width=".048" opacity="1" ry="4.536"/><text id="text15815" x="1662.731" y="-1531.915" fill="#000" fill-opacity="1" stroke="none" stroke-width=".265" font-family="Roboto" font-size="35.278" font-stretch="normal" font-style="normal" font-variant="normal" font-weight="normal" letter-spacing="0" text-anchor="start" word-spacing="0" writing-mode="lr-tb" xml:space="preserve" style="line-height:1.25;-inkscape-font-specification:'Roboto, Normal';font-variant-ligatures:normal;font-variant-caps:normal;font-variant-numeric:normal;font-feature-settings:normal;text-align:start"><tspan id="tspan15813" x="1662.731" y="-1531.915" fill="#fff" stroke-width=".265" font-size="19.756">Normal process node</tspan></text><rect id="rect15817" width="108.889" height="26.458" x="1523.59" y="-1510.104" fill="#0ff" fill-opacity=".984" stroke="none" stroke-dasharray="none" stroke-miterlimit="4" stroke-opacity="1" stroke-width=".04" opacity="1" ry="3.78"/><text id="text15821" x="1662.731" y="-1490.454" fill="#000" fill-opacity="1" stroke="none" stroke-width=".265" font-family="Roboto" font-size="35.278" font-stretch="normal" font-style="normal" font-variant="normal" font-weight="normal" letter-spacing="0" text-anchor="start" word-spacing="0" writing-mode="lr-tb" xml:space="preserve" style="line-height:1.25;-inkscape-font-specification:'Roboto, Normal';font-variant-ligatures:normal;font-variant-caps:normal;font-variant-numeric:normal;font-feature-settings:normal;text-align:start"><tspan id="tspan15819" x="1662.731" y="-1490.454" fill="#fff" stroke-width=".265" font-size="19.756">Subprocess node</tspan></text><path id="path15829" fill="none" stroke="#fff" stroke-dasharray="none" stroke-linecap="butt" stroke-linejoin="miter" stroke-miterlimit="4" stroke-opacity="1" stroke-width="3" marker-end="url(#marker15833)" d="m 1524,-1459.8334 121.7084,0"/><text id="text17241" x="1662.731" y="-1453.161" fill="#000" fill-opacity="1" stroke="none" stroke-width=".265" font-family="Roboto" font-size="35.278" font-stretch="normal" font-style="normal" font-variant="normal" font-weight="normal" letter-spacing="0" text-anchor="start" word-spacing="0" writing-mode="lr-tb" xml:space="preserve" style="line-height:1.25;-inkscape-font-specification:'Roboto, Normal';font-variant-ligatures:normal;font-variant-caps:normal;font-variant-numeric:normal;font-feature-settings:normal;text-align:start"><tspan id="tspan17239" x="1662.731" y="-1453.161" fill="#fff" stroke-width=".265" font-size="19.756">Normal connection</tspan></text><path id="path17249" fill="#fff" stroke="#06fb00" stroke-dasharray="none" stroke-linecap="butt" stroke-linejoin="miter" stroke-miterlimit="4" stroke-opacity="1" stroke-width="3" marker-end="url(#marker17253)" d="m 1524,-1422.7917 121.7084,0"/><text id="text17695" x="1662.731" y="-1417.575" fill="#000" fill-opacity="1" stroke="none" stroke-width=".265" font-family="Roboto" font-size="35.278" font-stretch="normal" font-style="normal" font-variant="normal" font-weight="normal" letter-spacing="0" text-anchor="start" word-spacing="0" writing-mode="lr-tb" xml:space="preserve" style="line-height:1.25;-inkscape-font-specification:'Roboto, Normal';font-variant-ligatures:normal;font-variant-caps:normal;font-variant-numeric:normal;font-feature-settings:normal;text-align:start"><tspan id="tspan17693" x="1662.731" y="-1417.575" fill="#fff" stroke-width=".265" font-size="19.756">Process success conn.</tspan></text><path id="path17703" fill="#fff" stroke="#fb0000" stroke-dasharray="none" stroke-linecap="butt" stroke-linejoin="miter" stroke-miterlimit="4" stroke-opacity="1" stroke-width="3" marker-end="url(#marker17707)" d="m 1524,-1385.75 121.7084,0"/><text id="text18125" x="1662.731" y="-1379.968" fill="#000" fill-opacity="1" stroke="none" stroke-width=".265" font-family="Roboto" font-size="35.278" font-stretch="normal" font-style="normal" font-variant="normal" font-weight="normal" letter-spacing="0" text-anchor="start" word-spacing="0" writing-mode="lr-tb" xml:space="preserve" style="line-height:1.25;-inkscape-font-specification:'Roboto, Normal';font-variant-ligatures:normal;font-variant-caps:normal;font-variant-numeric:normal;font-feature-settings:normal;text-align:start"><tspan id="tspan18123" x="1662.731" y="-1379.968" fill="#fff" stroke-width=".265" font-size="19.756">Process failure conn.</tspan></text></g><flowRoot id="flowRoot15809" fill="#000" fill-opacity="1" stroke="none" font-family="Roboto" font-size="40" font-stretch="normal" font-style="normal" font-variant="normal" font-weight="normal" letter-spacing="0" transform="matrix(0.26441851,0,0,0.26458333,1049.9297,-1733.2902)" word-spacing="0" xml:space="preserve" style="line-height:1.25;-inkscape-font-specification:Roboto"><flowRegion id="flowRegion15805" font-family="Roboto" font-stretch="normal" font-style="normal" font-variant="normal" font-weight="normal" style="-inkscape-font-specification:Roboto"><rect font-family="Roboto" style="-inkscape-font-specification:Roboto" id="rect15803" width="2280.68" height="785.91" x="2157.4" y="445.473" font-stretch="normal" font-style="normal" font-variant="normal" font-weight="normal"/></flowRegion><flowPara id="flowPara15807" fill="#fff" fill-opacity="1" font-family="Roboto" font-size="106.7" font-stretch="normal" font-style="normal" font-variant="normal" font-weight="500" style="-inkscape-font-specification:'Roboto Medium'">Conventions</flowPara></flowRoot></g></svg>