<svg xmlns="http://www.w3.org/2000/svg" xmlns:svg="http://www.w3.org/2000/svg" id="svg8" width="1920mm" height="1920mm" version="1.1" viewBox="0 0 1920 1920"><defs id="defs2"><marker id="marker1198" orient="auto" overflow="visible" refX="0" refY="0"><path id="path1196" fill="#fff" fill-opacity="1" fill-rule="evenodd" stroke="#1afbff" stroke-opacity="1" stroke-width="1pt" d="M -2.5,-1.0 C -2.5,1.7600000 -4.7400000,4.0 -7.5,4.0 C -10.260000,4.0 -12.5,1.7600000 -12.5,-1.0 C -12.5,-3.7600000 -10.260000,-6.0 -7.5,-6.0 C -4.7400000,-6.0 -2.5,-3.7600000 -2.5,-1.0 z" transform="scale(0.4) translate(7.4, 1)"/></marker><marker id="marker1192" orient="auto" overflow="visible" refX="0" refY="0"><path id="path1190" fill="#fff" fill-opacity="1" fill-rule="evenodd" stroke="#05f1fe" stroke-opacity="1" stroke-width="1pt" d="M -2.5,-1.0 C -2.5,1.7600000 -4.7400000,4.0 -7.5,4.0 C -10.260000,4.0 -12.5,1.7600000 -12.5,-1.0 C -12.5,-3.7600000 -10.260000,-6.0 -7.5,-6.0 C -4.7400000,-6.0 -2.5,-3.7600000 -2.5,-1.0 z" transform="scale(0.4) translate(7.4, 1)"/></marker><marker id="marker1180" orient="auto" overflow="visible" refX="0" refY="0"><path id="path1178" fill="#fff" fill-opacity="1" fill-rule="evenodd" stroke="#fff" stroke-opacity="1" stroke-width="1pt" d="M -2.5,-1.0 C -2.5,1.7600000 -4.7400000,4.0 -7.5,4.0 C -10.260000,4.0 -12.5,1.7600000 -12.5,-1.0 C -12.5,-3.7600000 -10.260000,-6.0 -7.5,-6.0 C -4.7400000,-6.0 -2.5,-3.7600000 -2.5,-1.0 z" transform="scale(0.4) translate(7.4, 1)"/></marker><marker id="marker1174" orient="auto" overflow="visible" refX="0" refY="0"><path id="path1172" fill="#fff" fill-opacity="1" fill-rule="evenodd" stroke="#fff" stroke-opacity="1" stroke-width="1pt" d="M -2.5,-1.0 C -2.5,1.7600000 -4.7400000,4.0 -7.5,4.0 C -10.260000,4.0 -12.5,1.7600000 -12.5,-1.0 C -12.5,-3.7600000 -10.260000,-6.0 -7.5,-6.0 C -4.7400000,-6.0 -2.5,-3.7600000 -2.5,-1.0 z" transform="scale(0.4) translate(7.4, 1)"/></marker><marker id="marker1156" orient="auto" overflow="visible" refX="0" refY="0"><path id="path1154" fill="#fff" fill-opacity="1" fill-rule="evenodd" stroke="#fff" stroke-opacity="1" stroke-width="1pt" d="M -2.5,-1.0 C -2.5,1.7600000 -4.7400000,4.0 -7.5,4.0 C -10.260000,4.0 -12.5,1.7600000 -12.5,-1.0 C -12.5,-3.7600000 -10.260000,-6.0 -7.5,-6.0 C -4.7400000,-6.0 -2.5,-3.7600000 -2.5,-1.0 z" transform="scale(0.4) translate(7.4, 1)"/></marker><marker id="marker1150" orient="auto" overflow="visible" refX="0" refY="0"><path id="path1148" fill="#fff" fill-opacity="1" fill-rule="evenodd" stroke="#fff" stroke-opacity="1" stroke-width="1pt" d="M -2.5,-1.0 C -2.5,1.7600000 -4.7400000,4.0 -7.5,4.0 C -10.260000,4.0 -12.5,1.7600000 -12.5,-1.0 C -12.5,-3.7600000 -10.260000,-6.0 -7.5,-6.0 C -4.7400000,-6.0 -2.5,-3.7600000 -2.5,-1.0 z" transform="scale(0.4) translate(7.4, 1)"/></marker><marker id="marker17707" orient="auto" overflow="visible" refX="0" refY="0"><path id="path17705" fill="#fff" fill-opacity="1" fill-rule="evenodd" stroke="#fb0000" stroke-opacity="1" stroke-width="1pt" d="M -2.5,-1.0 C -2.5,1.7600000 -4.7400000,4.0 -7.5,4.0 C -10.260000,4.0 -12.5,1.7600000 -12.5,-1.0 C -12.5,-3.7600000 -10.260000,-6.0 -7.5,-6.0 C -4.7400000,-6.0 -2.5,-3.7600000 -2.5,-1.0 z" transform="scale(0.4) translate(7.4, 1)"/></marker><marker id="marker13025" orient="auto" overflow="visible" refX="0" refY="0"><path id="path13023" fill="#fff" fill-opacity="1" fill-rule="evenodd" stroke="#16f800" stroke-opacity="1" stroke-width="1pt" d="M -2.5,-1.0 C -2.5,1.7600000 -4.7400000,4.0 -7.5,4.0 C -10.260000,4.0 -12.5,1.7600000 -12.5,-1.0 C -12.5,-3.7600000 -10.260000,-6.0 -7.5,-6.0 C -4.7400000,-6.0 -2.5,-3.7600000 -2.5,-1.0 z" transform="scale(0.4) translate(7.4, 1)"/></marker><marker id="marker7691" orient="auto" overflow="visible" refX="0" refY="0"><path id="path7689" fill="#fff" fill-opacity="1" fill-rule="evenodd" stroke="#16f800" stroke-opacity="1" stroke-width="1pt" d="M -2.5,-1.0 C -2.5,1.7600000 -4.7400000,4.0 -7.5,4.0 C -10.260000,4.0 -12.5,1.7600000 -12.5,-1.0 C -12.5,-3.7600000 -10.260000,-6.0 -7.5,-6.0 C -4.7400000,-6.0 -2.5,-3.7600000 -2.5,-1.0 z" transform="scale(0.4) translate(7.4, 1)"/></marker><marker id="marker5035" orient="auto" overflow="visible" refX="0" refY="0"><path id="path5033" fill="#f9f9f9" fill-opacity="1" fill-rule="evenodd" stroke="#1bfffb" stroke-opacity="1" stroke-width="1pt" d="M -2.5,-1.0 C -2.5,1.7600000 -4.7400000,4.0 -7.5,4.0 C -10.260000,4.0 -12.5,1.7600000 -12.5,-1.0 C -12.5,-3.7600000 -10.260000,-6.0 -7.5,-6.0 C -4.7400000,-6.0 -2.5,-3.7600000 -2.5,-1.0 z" transform="scale(0.4) translate(7.4, 1)"/></marker><marker id="marker2947" orient="auto" overflow="visible" refX="0" refY="0"><path id="path2945" fill="#fff" fill-opacity="1" fill-rule="evenodd" stroke="#fff" stroke-opacity="1" stroke-width="1pt" d="M -2.5,-1.0 C -2.5,1.7600000 -4.7400000,4.0 -7.5,4.0 C -10.260000,4.0 -12.5,1.7600000 -12.5,-1.0 C -12.5,-3.7600000 -10.260000,-6.0 -7.5,-6.0 C -4.7400000,-6.0 -2.5,-3.7600000 -2.5,-1.0 z" transform="scale(0.4) translate(7.4, 1)"/></marker><marker id="marker2869" orient="auto" overflow="visible" refX="0" refY="0"><path id="path2867" fill="#fff" fill-opacity="1" fill-rule="evenodd" stroke="#fff" stroke-opacity="1" stroke-width="1pt" d="M -2.5,-1.0 C -2.5,1.7600000 -4.7400000,4.0 -7.5,4.0 C -10.260000,4.0 -12.5,1.7600000 -12.5,-1.0 C -12.5,-3.7600000 -10.260000,-6.0 -7.5,-6.0 C -4.7400000,-6.0 -2.5,-3.7600000 -2.5,-1.0 z" transform="scale(0.4) translate(7.4, 1)"/></marker><marker id="DotS" orient="auto" overflow="visible" refX="0" refY="0"><path id="path954" fill="#fff" fill-opacity="1" fill-rule="evenodd" stroke="#fff" stroke-opacity="1" stroke-width="1pt" d="M -2.5,-1.0 C -2.5,1.7600000 -4.7400000,4.0 -7.5,4.0 C -10.260000,4.0 -12.5,1.7600000 -12.5,-1.0 C -12.5,-3.7600000 -10.260000,-6.0 -7.5,-6.0 C -4.7400000,-6.0 -2.5,-3.7600000 -2.5,-1.0 z" transform="scale(0.2) translate(7.4, 1)"/></marker><marker id="DotM" orient="auto" overflow="visible" refX="0" refY="0"><path id="path951" fill="#fff" fill-opacity="1" fill-rule="evenodd" stroke="#fff" stroke-opacity="1" stroke-width="1pt" d="M -2.5,-1.0 C -2.5,1.7600000 -4.7400000,4.0 -7.5,4.0 C -10.260000,4.0 -12.5,1.7600000 -12.5,-1.0 C -12.5,-3.7600000 -10.260000,-6.0 -7.5,-6.0 C -4.7400000,-6.0 -2.5,-3.7600000 -2.5,-1.0 z" transform="scale(0.4) translate(7.4, 1)"/></marker><marker id="DotL" orient="auto" overflow="visible" refX="0" refY="0"><path id="path948" fill="#fff" fill-opacity="1" fill-rule="evenodd" stroke="#fff" stroke-opacity="1" stroke-width="1pt" d="M -2.5,-1.0 C -2.5,1.7600000 -4.7400000,4.0 -7.5,4.0 C -10.260000,4.0 -12.5,1.7600000 -12.5,-1.0 C -12.5,-3.7600000 -10.260000,-6.0 -7.5,-6.0 C -4.7400000,-6.0 -2.5,-3.7600000 -2.5,-1.0 z" transform="scale(0.8) translate(7.4, 1)"/></marker><marker id="Arrow2Mend" orient="auto" overflow="visible" refX="0" refY="0"><path id="path914" fill="#fff" fill-opacity="1" fill-rule="evenodd" stroke="#fff" stroke-linejoin="round" stroke-opacity="1" stroke-width=".625" d="M 8.7185878,4.0337352 L -2.2072895,0.016013256 L 8.7185884,-4.0017078 C 6.9730900,-1.6296469 6.9831476,1.6157441 8.7185878,4.0337352 z" transform="scale(0.6) rotate(180) translate(0,0)"/></marker><marker id="Arrow1Lend" orient="auto" overflow="visible" refX="0" refY="0"><path id="path890" fill="#fff" fill-opacity="1" fill-rule="evenodd" stroke="#fff" stroke-opacity="1" stroke-width="1pt" d="M 0.0,0.0 L 5.0,-5.0 L -12.5,0.0 L 5.0,5.0 L 0.0,0.0 z" transform="scale(0.8) rotate(180) translate(12.5,0)"/></marker><marker id="marker1199" orient="auto" overflow="visible" refX="0" refY="0"><path id="path1197" fill="#fff" fill-opacity="1" fill-rule="evenodd" stroke="#fff" stroke-opacity="1" stroke-width="1pt" d="M 0.0,0.0 L 5.0,-5.0 L -12.5,0.0 L 5.0,5.0 L 0.0,0.0 z" transform="scale(0.8) translate(12.5,0)"/></marker><marker id="marker1171" orient="auto" overflow="visible" refX="0" refY="0"><path id="path1169" fill="#fff" fill-opacity="1" fill-rule="evenodd" stroke="#fff" stroke-opacity="1" stroke-width="1pt" d="M 0.0,0.0 L 5.0,-5.0 L -12.5,0.0 L 5.0,5.0 L 0.0,0.0 z" transform="scale(0.8) translate(12.5,0)"/></marker><marker id="Arrow1Lstart" orient="auto" overflow="visible" refX="0" refY="0"><path id="path887" fill="#fff" fill-opacity="1" fill-rule="evenodd" stroke="#fff" stroke-opacity="1" stroke-width="1pt" d="M 0.0,0.0 L 5.0,-5.0 L -12.5,0.0 L 5.0,5.0 L 0.0,0.0 z" transform="scale(0.8) translate(12.5,0)"/></marker></defs><metadata id="metadata5"/><g id="layer1" transform="translate(0,1623)"><flowRoot id="flowRoot10" fill="#000" fill-opacity="1" stroke="none" font-family="Roboto" font-size="160" font-stretch="normal" font-style="normal" font-variant="normal" font-weight="normal" letter-spacing="0" transform="matrix(0.26458333,0,0,0.26458333,183.4753,-1623)" word-spacing="0" xml:space="preserve" style="line-height:1.25;-inkscape-font-specification:Roboto"><flowRegion style="-inkscape-font-specification:Roboto" id="flowRegion12" font-family="Roboto" font-size="160" font-stretch="normal" font-style="normal" font-variant="normal" font-weight="normal"><rect id="rect14" width="2804.62" height="770.5" x="2157.4" y="430.063" font-family="Roboto" font-size="160" font-stretch="normal" font-style="normal" font-variant="normal" font-weight="normal" style="-inkscape-font-specification:Roboto"/></flowRegion><flowPara id="flowPara16"/></flowRoot><flowRoot id="flowRoot18" fill="#000" fill-opacity="1" stroke="none" font-family="Roboto" font-size="40" font-stretch="normal" font-style="normal" font-variant="normal" font-weight="normal" letter-spacing="0" transform="matrix(0.26441851,0,0,0.26458333,295.46592,-1661.3104)" word-spacing="0" xml:space="preserve" style="line-height:1.25;-inkscape-font-specification:Roboto"><flowRegion style="-inkscape-font-specification:Roboto" id="flowRegion20" font-family="Roboto" font-stretch="normal" font-style="normal" font-variant="normal" font-weight="normal"><rect font-family="Roboto" style="-inkscape-font-specification:Roboto" id="rect22" width="2280.68" height="785.91" x="2157.4" y="445.473" font-stretch="normal" font-style="normal" font-variant="normal" font-weight="normal"/></flowRegion><flowPara style="-inkscape-font-specification:Roboto" id="flowPara24" fill="#fff" fill-opacity="1" font-family="Roboto" font-size="160" font-stretch="normal" font-style="normal" font-variant="normal" font-weight="normal">System UI</flowPara></flowRoot><g id="g4572" transform="translate(10.583252,-10.583293)"><rect id="rect4563" width="300" height="95.25" x="800.667" y="-1396.333" fill="#c2c2c2" fill-opacity=".984" stroke="none" stroke-dasharray="none" stroke-miterlimit="4" stroke-opacity="1" stroke-width=".126" opacity="1" ry="13.607"/><text font-size="10.583" style="line-height:1.25;-inkscape-font-specification:Roboto" id="text4567" x="858.792" y="-1338.368" fill="#000" fill-opacity="1" stroke="none" stroke-width=".265" font-family="Roboto" font-stretch="normal" font-style="normal" font-variant="normal" font-weight="normal" letter-spacing="0" word-spacing="0" xml:space="preserve"><tspan id="tspan4565" x="858.792" y="-1338.368" stroke-width=".265" font-family="Roboto" font-size="35.278" font-stretch="normal" font-style="normal" font-variant="normal" font-weight="normal" style="-inkscape-font-specification:Roboto">Main State</tspan></text><rect id="rect4583" width="300" height="95.25" x="800.667" y="-1216.417" fill="#c2c2c2" fill-opacity=".984" stroke="none" stroke-dasharray="none" stroke-miterlimit="4" stroke-opacity="1" stroke-width=".126" opacity="1" ry="13.607"/><text id="text4587" x="855.36" y="-1158.451" fill="#000" fill-opacity="1" stroke="none" stroke-width=".265" font-family="Roboto" font-size="10.583" font-stretch="normal" font-style="normal" font-variant="normal" font-weight="normal" letter-spacing="0" word-spacing="0" xml:space="preserve" style="line-height:1.25;-inkscape-font-specification:Roboto"><tspan id="tspan1204" x="855.36" y="-1158.451" stroke-width=".265" font-family="Roboto" font-size="35.278" font-stretch="normal" font-style="normal" font-variant="normal" font-weight="normal" style="-inkscape-font-specification:Roboto">UI Modules</tspan></text><rect id="rect31" width="300" height="95.25" x="578.417" y="-1025.917" fill="#c2c2c2" fill-opacity=".984" stroke="none" stroke-dasharray="none" stroke-miterlimit="4" stroke-opacity="1" stroke-width=".126" opacity="1" ry="13.607"/><text font-size="10.583" style="line-height:1.25;-inkscape-font-specification:Roboto" id="text35" x="610.396" y="-964.312" fill="#000" fill-opacity="1" stroke="none" stroke-width=".265" font-family="Roboto" font-stretch="normal" font-style="normal" font-variant="normal" font-weight="normal" letter-spacing="0" word-spacing="0" xml:space="preserve"><tspan id="tspan33" x="610.396" y="-964.312" stroke-width=".265" font-family="Roboto" font-size="35.278" font-stretch="normal" font-style="normal" font-variant="normal" font-weight="normal" style="-inkscape-font-specification:Roboto">Status Display</tspan></text><rect id="rect43" width="300" height="95.25" x="1192.25" y="-1025.917" fill="#c2c2c2" fill-opacity=".984" stroke="none" stroke-dasharray="none" stroke-miterlimit="4" stroke-opacity="1" stroke-width=".126" opacity="1" ry="13.607"/><text id="text41" x="1229.193" y="-964.716" fill="#000" fill-opacity="1" stroke="none" stroke-width=".265" font-family="Roboto" font-size="10.583" font-stretch="normal" font-style="normal" font-variant="normal" font-weight="normal" letter-spacing="0" word-spacing="0" xml:space="preserve" style="line-height:1.25;-inkscape-font-specification:Roboto"><tspan id="tspan39" x="1229.193" y="-964.716" stroke-width=".265" font-family="Roboto" font-size="35.278" font-stretch="normal" font-style="normal" font-variant="normal" font-weight="normal" style="-inkscape-font-specification:Roboto">Alert Modules</tspan></text><path id="path78" fill="none" stroke="#fff" stroke-dasharray="none" stroke-linecap="butt" stroke-linejoin="miter" stroke-miterlimit="4" stroke-opacity="1" stroke-width="3" marker-end="url(#marker2869)" d="m 941.91674,-1301.0834 c 0,84.6667 0,84.6667 0,84.6667"/><path id="path885" fill="none" stroke="#fff" stroke-dasharray="none" stroke-linecap="butt" stroke-linejoin="miter" stroke-miterlimit="4" stroke-opacity="1" stroke-width="3" marker-end="url(#DotM)" d="m 920.75008,-1121.1667 c -10.3439,92.3775 -178.04701,-16.1554 -190.50001,95.25"/><path id="path2943" fill="none" stroke="#fff" stroke-dasharray="none" stroke-linecap="butt" stroke-linejoin="miter" stroke-miterlimit="4" stroke-opacity="1" stroke-width="3" marker-end="url(#marker2947)" d="m 973.66675,-1121.1667 c 10.3439,92.3775 357.96365,-16.1554 370.41665,95.25"/><rect id="rect15801" width="354.542" height="127" x="1513.417" y="-1565.667" fill="#666" fill-opacity=".984" stroke="none" stroke-dasharray="none" stroke-miterlimit="4" stroke-opacity="1" stroke-width=".161" opacity="1" ry="6.127"/><rect id="rect15811" width="130.667" height="31.75" x="1524" y="-1555.083" fill="#c2c2c2" fill-opacity=".984" stroke="none" stroke-dasharray="none" stroke-miterlimit="4" stroke-opacity="1" stroke-width=".048" opacity="1" ry="4.536"/><text id="text15815" x="1662.731" y="-1531.915" fill="#000" fill-opacity="1" stroke="none" stroke-width=".265" font-family="Roboto" font-size="35.278" font-stretch="normal" font-style="normal" font-variant="normal" font-weight="normal" letter-spacing="0" text-anchor="start" word-spacing="0" writing-mode="lr-tb" xml:space="preserve" style="line-height:1.25;-inkscape-font-specification:'Roboto, Normal';font-variant-ligatures:normal;font-variant-caps:normal;font-variant-numeric:normal;font-feature-settings:normal;text-align:start"><tspan id="tspan15813" x="1662.731" y="-1531.915" fill="#fff" stroke-width=".265" font-size="19.756">Normal process node</tspan></text><rect id="rect15817" width="108.889" height="26.458" x="1523.59" y="-1473.063" fill="#0ff" fill-opacity=".984" stroke="none" stroke-dasharray="none" stroke-miterlimit="4" stroke-opacity="1" stroke-width=".04" opacity="1" ry="3.78"/><text id="text15821" x="1662.731" y="-1490.454" fill="#000" fill-opacity="1" stroke="none" stroke-width=".265" font-family="Roboto" font-size="35.278" font-stretch="normal" font-style="normal" font-variant="normal" font-weight="normal" letter-spacing="0" text-anchor="start" word-spacing="0" writing-mode="lr-tb" xml:space="preserve" style="line-height:1.25;-inkscape-font-specification:'Roboto, Normal';font-variant-ligatures:normal;font-variant-caps:normal;font-variant-numeric:normal;font-feature-settings:normal;text-align:start"><tspan id="tspan15819" x="1662.731" y="-1490.454" fill="#fff" stroke-width=".265" font-size="19.756">Extendable/Base class</tspan></text><text id="text17241" x="1662.731" y="-1453.161" fill="#000" fill-opacity="1" stroke="none" stroke-width=".265" font-family="Roboto" font-size="35.278" font-stretch="normal" font-style="normal" font-variant="normal" font-weight="normal" letter-spacing="0" text-anchor="start" word-spacing="0" writing-mode="lr-tb" xml:space="preserve" style="line-height:1.25;-inkscape-font-specification:'Roboto, Normal';font-variant-ligatures:normal;font-variant-caps:normal;font-variant-numeric:normal;font-feature-settings:normal;text-align:start"><tspan id="tspan17239" x="1662.731" y="-1453.161" fill="#fff" stroke-width=".265" font-size="19.756">Derived class/variant</tspan></text><rect id="rect1134" width="300" height="95.25" x="1393.333" y="-856.583" fill="#c2c2c2" fill-opacity=".984" stroke="none" stroke-dasharray="none" stroke-miterlimit="4" stroke-opacity="1" stroke-width=".126" opacity="1" ry="13.607"/><text font-size="10.583" style="line-height:1.25;-inkscape-font-specification:Roboto" id="text1138" x="1458.22" y="-795.44" fill="#000" fill-opacity="1" stroke="none" stroke-width=".265" font-family="Roboto" font-stretch="normal" font-style="normal" font-variant="normal" font-weight="normal" letter-spacing="0" word-spacing="0" xml:space="preserve"><tspan id="tspan1136" x="1458.22" y="-795.44" stroke-width=".265" font-family="Roboto" font-size="35.278" font-stretch="normal" font-style="normal" font-variant="normal" font-weight="normal" style="-inkscape-font-specification:Roboto">Interactive</tspan></text><rect id="rect1140" width="300" height="95.25" x="984.25" y="-856.583" fill="#c2c2c2" fill-opacity=".984" stroke="none" stroke-dasharray="none" stroke-miterlimit="4" stroke-opacity="1" stroke-width=".126" opacity="1" ry="13.607"/><text id="text1144" x="1018.079" y="-795.44" fill="#000" fill-opacity="1" stroke="none" stroke-width=".265" font-family="Roboto" font-size="10.583" font-stretch="normal" font-style="normal" font-variant="normal" font-weight="normal" letter-spacing="0" word-spacing="0" xml:space="preserve" style="line-height:1.25;-inkscape-font-specification:Roboto"><tspan id="tspan1142" x="1018.079" y="-795.44" stroke-width=".265" font-family="Roboto" font-size="35.278" font-stretch="normal" font-style="normal" font-variant="normal" font-weight="normal" style="-inkscape-font-specification:Roboto">Non-Interactive</tspan></text><path id="path1146" fill="none" stroke="#fff" stroke-dasharray="none" stroke-linecap="butt" stroke-linejoin="miter" stroke-miterlimit="4" stroke-opacity="1" stroke-width="3" marker-end="url(#marker1150)" d="m 1312.3334,-930.66671 c -5.2917,89.95834 -153.4583,-5.29166 -179.9167,74.08334"/><path id="path1152" fill="none" stroke="#fff" stroke-dasharray="none" stroke-linecap="butt" stroke-linejoin="miter" stroke-miterlimit="4" stroke-opacity="1" stroke-width="3" marker-end="url(#marker1156)" d="m 1365.2501,-930.66671 c -5.2917,79.375 179.9167,-10.58333 190.5,74.08334"/><rect id="rect1158" width="300" height="95.25" x="980.583" y="-666.083" fill="#0f0" fill-opacity=".984" stroke="none" stroke-dasharray="none" stroke-miterlimit="4" stroke-opacity="1" stroke-width=".126" opacity="1" ry="13.607"/><text font-size="10.583" style="line-height:1.25;-inkscape-font-specification:Roboto" id="text1162" x="1070.457" y="-608.371" fill="#000" fill-opacity="1" stroke="none" stroke-width=".265" font-family="Roboto" font-stretch="normal" font-style="normal" font-variant="normal" font-weight="normal" letter-spacing="0" word-spacing="0" xml:space="preserve"><tspan id="tspan1160" x="1070.457" y="-608.371" stroke-width=".265" font-family="Roboto" font-size="35.278" font-stretch="normal" font-style="normal" font-variant="normal" font-weight="normal" style="-inkscape-font-specification:Roboto">Dialogs</tspan></text><rect id="rect1164" width="300" height="95.25" x="1393.333" y="-666.083" fill="#0f0" fill-opacity=".984" stroke="none" stroke-dasharray="none" stroke-miterlimit="4" stroke-opacity="1" stroke-width=".126" opacity="1" ry="13.607"/><text id="text1168" x="1496.932" y="-604.94" fill="#000" fill-opacity="1" stroke="none" stroke-width=".265" font-family="Roboto" font-size="10.583" font-stretch="normal" font-style="normal" font-variant="normal" font-weight="normal" letter-spacing="0" word-spacing="0" xml:space="preserve" style="line-height:1.25;-inkscape-font-specification:Roboto"><tspan id="tspan1166" x="1496.932" y="-604.94" stroke-width=".265" font-family="Roboto" font-size="35.278" font-stretch="normal" font-style="normal" font-variant="normal" font-weight="normal" style="-inkscape-font-specification:Roboto">Toasts</tspan></text><path id="path1170" fill="none" stroke="#fff" stroke-dasharray="none" stroke-linecap="butt" stroke-linejoin="miter" stroke-miterlimit="4" stroke-opacity="1" stroke-width="3" marker-end="url(#marker1174)" d="m 1132.4167,-761.33337 v 95.25"/><path id="path1176" fill="none" stroke="#fff" stroke-dasharray="none" stroke-linecap="butt" stroke-linejoin="miter" stroke-miterlimit="4" stroke-opacity="1" stroke-width="3" marker-end="url(#marker1180)" d="m 1555.7501,-761.33337 v 95.25"/><rect id="rect1182" width="214.723" height="68.792" x="801.277" y="-502.042" fill="#0ff" fill-opacity=".984" stroke="none" stroke-dasharray="none" stroke-miterlimit="4" stroke-opacity="1" stroke-width=".091" opacity="1" ry="9.827"/><rect id="rect1184" width="214.723" height="68.792" x="1034.111" y="-502.042" fill="#0ff" fill-opacity=".984" stroke="none" stroke-dasharray="none" stroke-miterlimit="4" stroke-opacity="1" stroke-width=".091" opacity="1" ry="9.827"/><path id="path1188" fill="none" stroke="#05f1fe" stroke-dasharray="none" stroke-linecap="butt" stroke-linejoin="miter" stroke-miterlimit="4" stroke-opacity="1" stroke-width="3" marker-end="url(#marker1192)" d="m 1132.4167,-570.83337 0,68.79166"/><path id="path1194" fill="none" stroke="#1afbff" stroke-dasharray="none" stroke-linecap="butt" stroke-linejoin="miter" stroke-miterlimit="4" stroke-opacity="1" stroke-width="3" marker-end="url(#marker1198)" d="m 1132.4167,-549.66671 c -10.5833,5.29167 -222.24995,-15.875 -216.95829,47.625"/><text id="text1202" x="956.081" y="-385.337" fill="#0ff" fill-opacity="1" stroke="none" stroke-width=".265" font-family="Roboto" font-size="10.583" font-stretch="normal" font-style="normal" font-variant="normal" font-weight="normal" letter-spacing="0" word-spacing="0" xml:space="preserve" style="line-height:1.25;-inkscape-font-specification:Roboto"><tspan font-size="35.278" style="-inkscape-font-specification:Roboto" id="tspan1200" x="956.081" y="-385.337" fill="#0ff" stroke-width=".265" font-family="Roboto" font-stretch="normal" font-style="italic" font-variant="normal" font-weight="normal">Variants</tspan></text><rect id="rect1208" width="130.667" height="31.75" x="1524" y="-1512.75" fill="#0f0" fill-opacity=".984" stroke="none" stroke-dasharray="none" stroke-miterlimit="4" stroke-opacity="1" stroke-width=".048" opacity="1" ry="4.536"/></g><flowRoot id="flowRoot15809" fill="#000" fill-opacity="1" stroke="none" font-family="Roboto" font-size="40" font-stretch="normal" font-style="normal" font-variant="normal" font-weight="normal" letter-spacing="0" transform="matrix(0.26441851,0,0,0.26458333,1049.9297,-1733.2902)" word-spacing="0" xml:space="preserve" style="line-height:1.25;-inkscape-font-specification:Roboto"><flowRegion id="flowRegion15805" font-family="Roboto" font-stretch="normal" font-style="normal" font-variant="normal" font-weight="normal" style="-inkscape-font-specification:Roboto"><rect font-family="Roboto" style="-inkscape-font-specification:Roboto" id="rect15803" width="2280.68" height="785.91" x="2157.4" y="445.473" font-stretch="normal" font-style="normal" font-variant="normal" font-weight="normal"/></flowRegion><flowPara id="flowPara15807" fill="#fff" fill-opacity="1" font-family="Roboto" font-size="106.7" font-stretch="normal" font-style="normal" font-variant="normal" font-weight="500" style="-inkscape-font-specification:'Roboto Medium'">Conventions</flowPara></flowRoot></g></svg>